<svg width="1440" height="1707" viewBox="0 0 1440 1707" fill="none" xmlns="http://www.w3.org/2000/svg">
<g filter="url(#filter0_f_271_38)">
<path d="M1257.12 272.796C1317.4 197.669 1436.21 106 1436.21 106C1436.21 106 1465.32 180.185 1478.73 229.513C1506.04 329.941 1509.75 443.814 1513.75 494.486C1517.75 545.158 1531.76 560.465 1536.26 698.23C1540.76 835.995 1524.26 847.079 1498.24 919.92C1472.23 992.762 1450.3 1021.72 1401.19 1070.35C1304.93 1165.69 1210.1 1159.48 1079.53 1180.14C960.908 1198.92 891.868 1169.06 772.378 1180.14C646.372 1191.83 575.723 1206.15 453.718 1241.37C358.548 1268.85 307.914 1293.67 215.098 1328.99C139.042 1357.94 21 1405 21 1405C21 1405 120.888 1279.01 199.59 1216.04C275.296 1155.46 322.077 1124.11 411.196 1089.36C515.399 1048.72 673.328 1039.74 691.837 1040.27C710.347 1040.79 852.199 1030.89 929.957 970.592C996.331 919.12 1030.01 857.108 1054.02 790.601C1078.03 724.094 1073.02 656.429 1099.54 574.717C1140.87 447.371 1174.7 375.531 1257.12 272.796Z" fill="#00D1FF" fill-opacity="0.6"/>
<path d="M1257.12 272.796C1317.4 197.669 1436.21 106 1436.21 106C1436.21 106 1465.32 180.185 1478.73 229.513C1506.04 329.941 1509.75 443.814 1513.75 494.486C1517.75 545.158 1531.76 560.465 1536.26 698.23C1540.76 835.995 1524.26 847.079 1498.24 919.92C1472.23 992.762 1450.3 1021.72 1401.19 1070.35C1304.93 1165.69 1210.1 1159.48 1079.53 1180.14C960.908 1198.92 891.868 1169.06 772.378 1180.14C646.372 1191.83 575.723 1206.15 453.718 1241.37C358.548 1268.85 307.914 1293.67 215.098 1328.99C139.042 1357.94 21 1405 21 1405C21 1405 120.888 1279.01 199.59 1216.04C275.296 1155.46 322.077 1124.11 411.196 1089.36C515.399 1048.72 673.328 1039.74 691.837 1040.27C710.347 1040.79 852.199 1030.89 929.957 970.592C996.331 919.12 1030.01 857.108 1054.02 790.601C1078.03 724.094 1073.02 656.429 1099.54 574.717C1140.87 447.371 1174.7 375.531 1257.12 272.796Z" stroke="black"/>
</g>
<defs>
<filter id="filter0_f_271_38" x="-280.557" y="-194.803" width="2118.06" height="1900.96" filterUnits="userSpaceOnUse" color-interpolation-filters="sRGB">
<feFlood flood-opacity="0" result="BackgroundImageFix"/>
<feBlend mode="normal" in="SourceGraphic" in2="BackgroundImageFix" result="shape"/>
<feGaussianBlur stdDeviation="150" result="effect1_foregroundBlur_271_38"/>
</filter>
</defs>
</svg>
