<svg width="1104" height="927" viewBox="0 0 1104 927" fill="none" xmlns="http://www.w3.org/2000/svg">
<g id="Vector 2" filter="url(#filter0_f_286_2)">
<path d="M-51.7065 -115.857C-93.334 -165.016 -175.392 -225 -175.392 -225C-175.392 -225 -195.495 -176.457 -204.759 -144.179C-223.619 -78.4645 -226.179 -3.95164 -228.943 29.2056C-231.707 62.3629 -241.381 72.3791 -244.49 162.525C-247.599 252.672 -236.198 259.925 -218.233 307.588C-200.267 355.252 -185.125 374.2 -151.208 406.024C-84.7219 468.405 -19.2301 464.344 70.9426 477.865C152.869 490.148 200.549 470.613 283.074 477.865C370.097 485.511 418.89 494.88 503.151 517.93C568.878 535.91 603.848 552.151 667.95 575.264C720.477 594.204 802 625 802 625C802 625 733.014 542.556 678.66 501.351C626.375 461.714 594.066 441.201 532.518 418.458C460.552 391.865 351.481 385.991 338.698 386.337C325.914 386.682 227.947 380.203 174.244 340.746C128.404 307.065 105.146 266.487 88.5626 222.968C71.9791 179.449 75.437 135.173 57.123 81.7046C28.5811 -1.62378 5.21918 -48.6326 -51.7065 -115.857Z" fill="#00D1FF" fill-opacity="0.6"/>
<path d="M-51.7065 -115.857C-93.334 -165.016 -175.392 -225 -175.392 -225C-175.392 -225 -195.495 -176.457 -204.759 -144.179C-223.619 -78.4645 -226.179 -3.95164 -228.943 29.2056C-231.707 62.3629 -241.381 72.3791 -244.49 162.525C-247.599 252.672 -236.198 259.925 -218.233 307.588C-200.267 355.252 -185.125 374.2 -151.208 406.024C-84.7219 468.405 -19.2301 464.344 70.9426 477.865C152.869 490.148 200.549 470.613 283.074 477.865C370.097 485.511 418.89 494.88 503.151 517.93C568.878 535.91 603.848 552.151 667.95 575.264C720.477 594.204 802 625 802 625C802 625 733.014 542.556 678.66 501.351C626.375 461.714 594.066 441.201 532.518 418.458C460.552 391.865 351.481 385.991 338.698 386.337C325.914 386.682 227.947 380.203 174.244 340.746C128.404 307.065 105.146 266.487 88.5626 222.968C71.9791 179.449 75.437 135.173 57.123 81.7046C28.5811 -1.62378 5.21918 -48.6326 -51.7065 -115.857Z" stroke="black"/>
</g>
<defs>
<filter id="filter0_f_286_2" x="-545.5" y="-525.779" width="1649.11" height="1451.92" filterUnits="userSpaceOnUse" color-interpolation-filters="sRGB">
<feFlood flood-opacity="0" result="BackgroundImageFix"/>
<feBlend mode="normal" in="SourceGraphic" in2="BackgroundImageFix" result="shape"/>
<feGaussianBlur stdDeviation="150" result="effect1_foregroundBlur_286_2"/>
</filter>
</defs>
</svg>
