<svg xmlns="http://www.w3.org/2000/svg" xmlns:xlink="http://www.w3.org/1999/xlink" zoomAndPan="magnify" preserveAspectRatio="xMidYMid meet" version="1.0" viewBox="76.61 193.13 101.84 95.1"><defs><clipPath id="2068c1623f"><path d="M 106 193.128906 L 116 193.128906 L 116 202 L 106 202 Z M 106 193.128906 " clip-rule="nonzero"/></clipPath><clipPath id="b59fd6d3f7"><path d="M 139 193.128906 L 149 193.128906 L 149 202 L 139 202 Z M 139 193.128906 " clip-rule="nonzero"/></clipPath><clipPath id="f28f84a8aa"><path d="M 106 279 L 116 279 L 116 288.230469 L 106 288.230469 Z M 106 279 " clip-rule="nonzero"/></clipPath><clipPath id="6a33600c3c"><path d="M 139 279 L 149 279 L 149 288.230469 L 139 288.230469 Z M 139 279 " clip-rule="nonzero"/></clipPath><clipPath id="e821cae52f"><path d="M 76.613281 219 L 86 219 L 86 229 L 76.613281 229 Z M 76.613281 219 " clip-rule="nonzero"/></clipPath><clipPath id="0ff07b07d9"><path d="M 76.613281 252 L 86 252 L 86 262 L 76.613281 262 Z M 76.613281 252 " clip-rule="nonzero"/></clipPath><clipPath id="c9fa9c42e5"><path d="M 169 219 L 178.457031 219 L 178.457031 229 L 169 229 Z M 169 219 " clip-rule="nonzero"/></clipPath><clipPath id="eefda6b7d5"><path d="M 169 252 L 178.457031 252 L 178.457031 262 L 169 262 Z M 169 252 " clip-rule="nonzero"/></clipPath></defs><path fill="#ffe959" d="M 130.183594 253.605469 L 124.9375 253.605469 C 124.300781 253.605469 123.785156 253.085938 123.785156 252.449219 L 123.785156 249.699219 L 121.835938 251.644531 C 121.621094 251.863281 121.324219 251.984375 121.019531 251.984375 C 120.710938 251.984375 120.417969 251.859375 120.199219 251.644531 L 116.492188 247.9375 C 116.039062 247.484375 116.039062 246.753906 116.492188 246.300781 L 118.4375 244.355469 L 115.6875 244.355469 C 115.050781 244.355469 114.53125 243.835938 114.53125 243.199219 L 114.53125 237.957031 C 114.53125 237.316406 115.050781 236.800781 115.6875 236.800781 L 118.4375 236.800781 L 116.492188 234.855469 C 116.039062 234.402344 116.039062 233.671875 116.492188 233.21875 L 120.199219 229.511719 C 120.652344 229.058594 121.382812 229.058594 121.835938 229.511719 L 123.78125 231.457031 L 123.78125 228.703125 C 123.78125 228.066406 124.300781 227.546875 124.9375 227.546875 L 130.179688 227.546875 C 130.820312 227.546875 131.335938 228.066406 131.335938 228.703125 L 131.335938 231.457031 L 133.28125 229.507812 C 133.5 229.292969 133.792969 229.171875 134.101562 229.171875 C 134.410156 229.171875 134.703125 229.292969 134.917969 229.507812 L 138.628906 233.21875 C 139.078125 233.667969 139.078125 234.402344 138.628906 234.851562 L 136.679688 236.796875 L 139.433594 236.796875 C 140.070312 236.796875 140.589844 237.316406 140.589844 237.953125 L 140.589844 243.199219 C 140.589844 243.835938 140.070312 244.351562 139.433594 244.351562 L 136.679688 244.351562 L 138.628906 246.300781 C 138.84375 246.515625 138.964844 246.8125 138.964844 247.117188 C 138.964844 247.425781 138.84375 247.71875 138.628906 247.9375 L 134.917969 251.644531 C 134.46875 252.097656 133.734375 252.097656 133.285156 251.644531 L 131.339844 249.699219 L 131.339844 252.449219 C 131.339844 253.085938 130.820312 253.605469 130.183594 253.605469 Z M 126.09375 251.292969 L 129.027344 251.292969 L 129.027344 248.511719 C 129.027344 248.011719 129.347656 247.570312 129.820312 247.410156 C 130.152344 247.304688 130.480469 247.167969 130.796875 247.007812 C 131.242188 246.78125 131.78125 246.867188 132.132812 247.222656 L 134.101562 249.191406 L 136.175781 247.121094 L 134.207031 245.152344 C 133.851562 244.796875 133.765625 244.257812 133.992188 243.8125 C 134.148438 243.496094 134.285156 243.167969 134.394531 242.835938 C 134.550781 242.363281 134.992188 242.042969 135.492188 242.042969 L 138.277344 242.042969 L 138.277344 239.113281 L 135.492188 239.113281 C 134.992188 239.113281 134.550781 238.792969 134.394531 238.320312 C 134.285156 237.984375 134.148438 237.65625 133.992188 237.34375 C 133.765625 236.898438 133.851562 236.359375 134.207031 236.003906 L 136.175781 234.035156 L 134.105469 231.964844 L 132.132812 233.933594 C 131.78125 234.289062 131.242188 234.371094 130.796875 234.148438 C 130.484375 233.992188 130.15625 233.855469 129.820312 233.742188 C 129.347656 233.585938 129.027344 233.144531 129.027344 232.644531 L 129.027344 229.863281 L 126.09375 229.863281 L 126.09375 232.648438 C 126.09375 233.148438 125.777344 233.589844 125.300781 233.746094 C 124.972656 233.855469 124.644531 233.992188 124.328125 234.152344 C 123.878906 234.375 123.34375 234.289062 122.992188 233.9375 L 121.019531 231.964844 L 118.949219 234.039062 L 120.917969 236.007812 C 121.273438 236.359375 121.359375 236.898438 121.132812 237.347656 C 120.976562 237.660156 120.839844 237.988281 120.730469 238.320312 C 120.570312 238.796875 120.128906 239.113281 119.632812 239.113281 L 116.847656 239.113281 L 116.847656 242.046875 L 119.632812 242.046875 C 120.132812 242.046875 120.574219 242.363281 120.730469 242.839844 C 120.839844 243.171875 120.976562 243.496094 121.136719 243.816406 C 121.359375 244.261719 121.273438 244.800781 120.921875 245.152344 L 118.953125 247.121094 L 121.027344 249.195312 L 122.996094 247.222656 C 123.347656 246.871094 123.886719 246.785156 124.332031 247.007812 C 124.648438 247.167969 124.976562 247.304688 125.308594 247.414062 C 125.78125 247.570312 126.101562 248.011719 126.101562 248.511719 L 126.101562 251.292969 Z M 126.09375 251.292969 " fill-opacity="1" fill-rule="nonzero"/><path fill="#ffe959" d="M 127.5625 245.890625 C 124.632812 245.890625 122.25 243.507812 122.25 240.578125 C 122.25 237.648438 124.632812 235.265625 127.5625 235.265625 C 130.492188 235.265625 132.875 237.648438 132.875 240.578125 C 132.875 243.507812 130.492188 245.890625 127.5625 245.890625 Z M 127.5625 237.578125 C 125.90625 237.578125 124.558594 238.921875 124.558594 240.578125 C 124.558594 242.234375 125.90625 243.578125 127.5625 243.578125 C 129.214844 243.578125 130.5625 242.234375 130.5625 240.578125 C 130.5625 238.921875 129.214844 237.578125 127.5625 237.578125 Z M 127.5625 237.578125 " fill-opacity="1" fill-rule="nonzero"/><path fill="#ffe959" d="M 148.675781 266.421875 L 106.445312 266.421875 C 101.945312 266.421875 98.285156 262.761719 98.285156 258.257812 L 98.285156 222.894531 C 98.285156 218.394531 101.945312 214.730469 106.445312 214.730469 L 148.675781 214.730469 C 153.175781 214.730469 156.839844 218.394531 156.839844 222.894531 L 156.839844 258.257812 C 156.839844 262.761719 153.175781 266.421875 148.675781 266.421875 Z M 106.445312 217.046875 C 103.21875 217.046875 100.59375 219.667969 100.59375 222.898438 L 100.59375 258.261719 C 100.59375 261.488281 103.21875 264.113281 106.445312 264.113281 L 148.675781 264.113281 C 151.902344 264.113281 154.527344 261.488281 154.527344 258.261719 L 154.527344 222.894531 C 154.527344 219.667969 151.902344 217.042969 148.675781 217.042969 L 106.445312 217.042969 Z M 106.445312 217.046875 " fill-opacity="1" fill-rule="nonzero"/><path fill="#ffe959" d="M 145.359375 259.144531 L 109.765625 259.144531 C 107.449219 259.144531 105.5625 257.257812 105.5625 254.941406 L 105.5625 226.214844 C 105.5625 223.898438 107.449219 222.011719 109.765625 222.011719 L 145.355469 222.011719 C 147.671875 222.011719 149.558594 223.894531 149.558594 226.214844 L 149.558594 254.945312 C 149.5625 257.261719 147.675781 259.144531 145.359375 259.144531 Z M 109.765625 224.324219 C 108.722656 224.324219 107.875 225.171875 107.875 226.214844 L 107.875 254.945312 C 107.875 255.988281 108.722656 256.835938 109.765625 256.835938 L 145.355469 256.835938 C 146.398438 256.835938 147.246094 255.988281 147.246094 254.945312 L 147.246094 226.214844 C 147.246094 225.171875 146.398438 224.324219 145.355469 224.324219 Z M 109.765625 224.324219 " fill-opacity="1" fill-rule="nonzero"/><path fill="#ffe959" d="M 123.097656 217.046875 C 122.457031 217.046875 121.941406 216.527344 121.941406 215.890625 L 121.941406 200.039062 C 121.941406 199.203125 121.261719 198.523438 120.425781 198.523438 L 114.191406 198.523438 C 113.554688 198.523438 113.035156 198.003906 113.035156 197.367188 C 113.035156 196.726562 113.554688 196.210938 114.191406 196.210938 L 120.425781 196.210938 C 122.539062 196.210938 124.253906 197.929688 124.253906 200.039062 L 124.253906 215.890625 C 124.253906 216.527344 123.734375 217.046875 123.097656 217.046875 Z M 123.097656 217.046875 " fill-opacity="1" fill-rule="nonzero"/><g clip-path="url(#2068c1623f)"><path fill="#ffe959" d="M 111.117188 201.59375 C 108.785156 201.59375 106.886719 199.699219 106.886719 197.367188 C 106.886719 195.035156 108.785156 193.136719 111.117188 193.136719 C 113.445312 193.136719 115.34375 195.035156 115.34375 197.367188 C 115.34375 199.699219 113.445312 201.59375 111.117188 201.59375 Z M 111.117188 195.449219 C 110.058594 195.449219 109.199219 196.308594 109.199219 197.367188 C 109.199219 198.421875 110.058594 199.28125 111.117188 199.28125 C 112.171875 199.28125 113.03125 198.421875 113.03125 197.367188 C 113.03125 196.308594 112.171875 195.449219 111.117188 195.449219 Z M 111.117188 195.449219 " fill-opacity="1" fill-rule="nonzero"/></g><path fill="#ffe959" d="M 132.023438 217.046875 C 131.386719 217.046875 130.871094 216.527344 130.871094 215.890625 L 130.871094 200.039062 C 130.871094 197.929688 132.585938 196.210938 134.695312 196.210938 L 140.929688 196.210938 C 141.570312 196.210938 142.085938 196.726562 142.085938 197.367188 C 142.085938 198.003906 141.570312 198.523438 140.929688 198.523438 L 134.695312 198.523438 C 133.859375 198.523438 133.179688 199.203125 133.179688 200.039062 L 133.179688 215.890625 C 133.179688 216.527344 132.664062 217.046875 132.023438 217.046875 Z M 132.023438 217.046875 " fill-opacity="1" fill-rule="nonzero"/><g clip-path="url(#b59fd6d3f7)"><path fill="#ffe959" d="M 144.003906 201.59375 C 141.675781 201.59375 139.777344 199.699219 139.777344 197.367188 C 139.777344 195.035156 141.671875 193.136719 144.003906 193.136719 C 146.339844 193.136719 148.234375 195.035156 148.234375 197.367188 C 148.234375 199.699219 146.335938 201.59375 144.003906 201.59375 Z M 144.003906 195.449219 C 142.949219 195.449219 142.089844 196.308594 142.089844 197.367188 C 142.089844 198.421875 142.949219 199.28125 144.003906 199.28125 C 145.0625 199.28125 145.921875 198.421875 145.921875 197.367188 C 145.921875 196.308594 145.0625 195.449219 144.003906 195.449219 Z M 144.003906 195.449219 " fill-opacity="1" fill-rule="nonzero"/></g><path fill="#ffe959" d="M 120.425781 284.945312 L 114.1875 284.945312 C 113.550781 284.945312 113.03125 284.425781 113.03125 283.789062 C 113.03125 283.152344 113.550781 282.632812 114.1875 282.632812 L 120.425781 282.632812 C 121.257812 282.632812 121.9375 281.953125 121.9375 281.117188 L 121.9375 265.265625 C 121.9375 264.628906 122.457031 264.109375 123.09375 264.109375 C 123.734375 264.109375 124.25 264.628906 124.25 265.265625 L 124.25 281.117188 C 124.253906 283.226562 122.535156 284.945312 120.425781 284.945312 Z M 120.425781 284.945312 " fill-opacity="1" fill-rule="nonzero"/><g clip-path="url(#f28f84a8aa)"><path fill="#ffe959" d="M 111.117188 288.019531 C 108.785156 288.019531 106.886719 286.121094 106.886719 283.789062 C 106.886719 281.457031 108.785156 279.5625 111.117188 279.5625 C 113.445312 279.5625 115.34375 281.457031 115.34375 283.789062 C 115.34375 286.121094 113.445312 288.019531 111.117188 288.019531 Z M 111.117188 281.871094 C 110.058594 281.871094 109.199219 282.734375 109.199219 283.789062 C 109.199219 284.847656 110.058594 285.707031 111.117188 285.707031 C 112.171875 285.707031 113.03125 284.847656 113.03125 283.789062 C 113.03125 282.734375 112.171875 281.871094 111.117188 281.871094 Z M 111.117188 281.871094 " fill-opacity="1" fill-rule="nonzero"/></g><path fill="#ffe959" d="M 140.933594 284.945312 L 134.699219 284.945312 C 132.585938 284.945312 130.871094 283.226562 130.871094 281.117188 L 130.871094 265.265625 C 130.871094 264.628906 131.390625 264.109375 132.027344 264.109375 C 132.664062 264.109375 133.183594 264.628906 133.183594 265.265625 L 133.183594 281.117188 C 133.183594 281.953125 133.863281 282.632812 134.699219 282.632812 L 140.933594 282.632812 C 141.570312 282.632812 142.089844 283.152344 142.089844 283.789062 C 142.089844 284.425781 141.570312 284.945312 140.933594 284.945312 Z M 140.933594 284.945312 " fill-opacity="1" fill-rule="nonzero"/><g clip-path="url(#6a33600c3c)"><path fill="#ffe959" d="M 144.003906 288.019531 C 141.675781 288.019531 139.777344 286.121094 139.777344 283.789062 C 139.777344 281.457031 141.671875 279.5625 144.003906 279.5625 C 146.339844 279.5625 148.234375 281.457031 148.234375 283.789062 C 148.234375 286.121094 146.335938 288.019531 144.003906 288.019531 Z M 144.003906 281.871094 C 142.949219 281.871094 142.089844 282.734375 142.089844 283.789062 C 142.089844 284.847656 142.949219 285.707031 144.003906 285.707031 C 145.0625 285.707031 145.921875 284.847656 145.921875 283.789062 C 145.921875 282.734375 145.0625 281.871094 144.003906 281.871094 Z M 144.003906 281.871094 " fill-opacity="1" fill-rule="nonzero"/></g><path fill="#ffe959" d="M 99.4375 237.269531 L 83.589844 237.269531 C 81.476562 237.269531 79.761719 235.550781 79.761719 233.445312 L 79.761719 227.207031 C 79.761719 226.566406 80.277344 226.050781 80.917969 226.050781 C 81.554688 226.050781 82.074219 226.566406 82.074219 227.207031 L 82.074219 233.441406 C 82.074219 234.277344 82.753906 234.957031 83.589844 234.957031 L 99.4375 234.957031 C 100.078125 234.957031 100.59375 235.472656 100.59375 236.113281 C 100.59375 236.75 100.078125 237.269531 99.4375 237.269531 Z M 99.4375 237.269531 " fill-opacity="1" fill-rule="nonzero"/><g clip-path="url(#e821cae52f)"><path fill="#ffe959" d="M 80.917969 228.363281 C 78.589844 228.363281 76.691406 226.464844 76.691406 224.132812 C 76.691406 221.800781 78.585938 219.90625 80.917969 219.90625 C 83.25 219.90625 85.148438 221.800781 85.148438 224.132812 C 85.148438 226.464844 83.25 228.363281 80.917969 228.363281 Z M 80.917969 222.21875 C 79.863281 222.21875 79.003906 223.078125 79.003906 224.132812 C 79.003906 225.191406 79.863281 226.050781 80.917969 226.050781 C 81.976562 226.050781 82.835938 225.191406 82.835938 224.132812 C 82.835938 223.078125 81.976562 222.21875 80.917969 222.21875 Z M 80.917969 222.21875 " fill-opacity="1" fill-rule="nonzero"/></g><path fill="#ffe959" d="M 80.917969 255.105469 C 80.28125 255.105469 79.761719 254.589844 79.761719 253.949219 L 79.761719 247.714844 C 79.761719 245.605469 81.480469 243.886719 83.589844 243.886719 L 99.441406 243.886719 C 100.078125 243.886719 100.597656 244.40625 100.597656 245.042969 C 100.597656 245.683594 100.078125 246.199219 99.441406 246.199219 L 83.589844 246.199219 C 82.753906 246.199219 82.074219 246.878906 82.074219 247.714844 L 82.074219 253.949219 C 82.074219 254.589844 81.558594 255.105469 80.917969 255.105469 Z M 80.917969 255.105469 " fill-opacity="1" fill-rule="nonzero"/><g clip-path="url(#0ff07b07d9)"><path fill="#ffe959" d="M 80.917969 261.25 C 78.589844 261.25 76.691406 259.355469 76.691406 257.023438 C 76.691406 254.691406 78.585938 252.792969 80.917969 252.792969 C 83.25 252.792969 85.148438 254.691406 85.148438 257.023438 C 85.148438 259.351562 83.25 261.25 80.917969 261.25 Z M 80.917969 255.105469 C 79.863281 255.105469 79.003906 255.964844 79.003906 257.023438 C 79.003906 258.078125 79.863281 258.9375 80.917969 258.9375 C 81.976562 258.9375 82.835938 258.078125 82.835938 257.023438 C 82.835938 255.964844 81.976562 255.105469 80.917969 255.105469 Z M 80.917969 255.105469 " fill-opacity="1" fill-rule="nonzero"/></g><path fill="#ffe959" d="M 171.53125 237.269531 L 155.683594 237.269531 C 155.042969 237.269531 154.527344 236.75 154.527344 236.113281 C 154.527344 235.476562 155.042969 234.957031 155.683594 234.957031 L 171.53125 234.957031 C 172.367188 234.957031 173.046875 234.277344 173.046875 233.445312 L 173.046875 227.207031 C 173.046875 226.566406 173.566406 226.050781 174.203125 226.050781 C 174.839844 226.050781 175.359375 226.566406 175.359375 227.207031 L 175.359375 233.441406 C 175.359375 235.550781 173.640625 237.269531 171.53125 237.269531 Z M 171.53125 237.269531 " fill-opacity="1" fill-rule="nonzero"/><g clip-path="url(#c9fa9c42e5)"><path fill="#ffe959" d="M 174.203125 228.363281 C 171.871094 228.363281 169.976562 226.464844 169.976562 224.132812 C 169.976562 221.800781 171.871094 219.90625 174.203125 219.90625 C 176.535156 219.90625 178.433594 221.800781 178.433594 224.132812 C 178.433594 226.464844 176.535156 228.363281 174.203125 228.363281 Z M 174.203125 222.21875 C 173.148438 222.21875 172.285156 223.078125 172.285156 224.132812 C 172.285156 225.191406 173.148438 226.050781 174.203125 226.050781 C 175.261719 226.050781 176.121094 225.191406 176.121094 224.132812 C 176.121094 223.078125 175.261719 222.21875 174.203125 222.21875 Z M 174.203125 222.21875 " fill-opacity="1" fill-rule="nonzero"/></g><path fill="#ffe959" d="M 174.203125 255.105469 C 173.566406 255.105469 173.046875 254.589844 173.046875 253.949219 L 173.046875 247.714844 C 173.046875 246.878906 172.367188 246.199219 171.53125 246.199219 L 155.683594 246.199219 C 155.042969 246.199219 154.527344 245.683594 154.527344 245.042969 C 154.527344 244.40625 155.042969 243.886719 155.683594 243.886719 L 171.53125 243.886719 C 173.644531 243.886719 175.359375 245.605469 175.359375 247.714844 L 175.359375 253.949219 C 175.359375 254.589844 174.839844 255.105469 174.203125 255.105469 Z M 174.203125 255.105469 " fill-opacity="1" fill-rule="nonzero"/><g clip-path="url(#eefda6b7d5)"><path fill="#ffe959" d="M 174.203125 261.25 C 171.871094 261.25 169.976562 259.355469 169.976562 257.023438 C 169.976562 254.691406 171.871094 252.792969 174.203125 252.792969 C 176.535156 252.792969 178.433594 254.691406 178.433594 257.023438 C 178.433594 259.351562 176.535156 261.25 174.203125 261.25 Z M 174.203125 255.105469 C 173.148438 255.105469 172.285156 255.964844 172.285156 257.023438 C 172.285156 258.078125 173.148438 258.9375 174.203125 258.9375 C 175.261719 258.9375 176.121094 258.078125 176.121094 257.023438 C 176.121094 255.964844 175.261719 255.105469 174.203125 255.105469 Z M 174.203125 255.105469 " fill-opacity="1" fill-rule="nonzero"/></g></svg>