<svg xmlns="http://www.w3.org/2000/svg" xmlns:xlink="http://www.w3.org/1999/xlink" width="500" zoomAndPan="magnify" viewBox="0 0 375 374.999991" height="500" preserveAspectRatio="xMidYMid meet" version="1.0"><defs><clipPath id="9bd0595e9a"><path d="M 69.753906 107.285156 L 305.253906 107.285156 L 305.253906 267.785156 L 69.753906 267.785156 Z M 69.753906 107.285156 " clip-rule="nonzero"/></clipPath><clipPath id="13f67ced32"><path d="M 6.632812 6.632812 L 368.132812 6.632812 L 368.132812 368.132812 L 6.632812 368.132812 Z M 6.632812 6.632812 " clip-rule="nonzero"/></clipPath></defs><g clip-path="url(#9bd0595e9a)"><path fill="#ffffff" d="M 287.945312 170.15625 L 129.027344 170.15625 C 129.027344 170.15625 162.507812 136.917969 163.390625 135.78125 C 165.6875 132.835938 167.066406 129.144531 167.066406 125.125 C 167.066406 120.683594 165.390625 116.644531 162.648438 113.566406 L 161.242188 112.160156 C 158.167969 109.417969 154.125 107.734375 149.683594 107.734375 C 145.117188 107.734375 140.96875 109.519531 137.867188 112.402344 C 137.867188 112.402344 73.746094 176.421875 73.417969 176.84375 C 71.148438 179.78125 69.789062 183.445312 69.789062 187.449219 C 69.789062 191.441406 71.148438 195.113281 73.414062 198.042969 C 74.332031 199.230469 138.664062 263.292969 138.664062 263.292969 C 141.648438 265.710938 145.449219 267.164062 149.59375 267.164062 C 159.191406 267.164062 166.976562 259.382812 166.976562 249.785156 C 166.976562 245.574219 165.480469 241.714844 162.992188 238.707031 L 129.027344 204.742188 L 287.945312 204.742188 C 297.5 204.742188 305.238281 196.996094 305.238281 187.449219 C 305.238281 177.894531 297.5 170.15625 287.945312 170.15625 " fill-opacity="1" fill-rule="nonzero"/></g><g clip-path="url(#13f67ced32)"><path fill="#ffffff" d="M 187.496094 368.355469 C 87.574219 368.355469 6.632812 286.855469 6.632812 187.496094 C 6.632812 88.132812 87.574219 6.632812 187.496094 6.632812 C 287.414062 6.632812 368.355469 87.574219 368.355469 187.496094 C 368.355469 287.414062 286.855469 368.355469 187.496094 368.355469 Z M 187.496094 17.796875 C 93.714844 17.796875 17.796875 93.714844 17.796875 187.496094 C 17.796875 281.273438 93.714844 357.191406 187.496094 357.191406 C 281.273438 357.191406 357.191406 281.273438 357.191406 187.496094 C 357.191406 93.714844 280.714844 17.796875 187.496094 17.796875 Z M 187.496094 17.796875 " fill-opacity="1" fill-rule="nonzero"/></g></svg>