<svg xmlns="http://www.w3.org/2000/svg" xmlns:xlink="http://www.w3.org/1999/xlink" width="500" zoomAndPan="magnify" viewBox="0 0 375 374.999991" height="500" preserveAspectRatio="xMidYMid meet" version="1.0"><defs><clipPath id="88e8a0246c"><path d="M 69.753906 107.285156 L 305.242188 107.285156 L 305.242188 267.785156 L 69.753906 267.785156 Z M 69.753906 107.285156 " clip-rule="nonzero"/></clipPath><clipPath id="45660ff0d3"><path d="M 6.632812 6.632812 L 368.132812 6.632812 L 368.132812 368.132812 L 6.632812 368.132812 Z M 6.632812 6.632812 " clip-rule="nonzero"/></clipPath></defs><g clip-path="url(#88e8a0246c)"><path fill="#ffffff" d="M 87.050781 170.15625 L 245.96875 170.15625 C 245.96875 170.15625 212.488281 136.917969 211.605469 135.78125 C 209.308594 132.835938 207.929688 129.144531 207.929688 125.125 C 207.929688 120.683594 209.605469 116.644531 212.347656 113.566406 L 213.753906 112.160156 C 216.828125 109.417969 220.871094 107.734375 225.3125 107.734375 C 229.878906 107.734375 234.027344 109.519531 237.128906 112.402344 C 237.128906 112.402344 301.25 176.421875 301.578125 176.84375 C 303.847656 179.78125 305.207031 183.445312 305.207031 187.449219 C 305.207031 191.441406 303.847656 195.113281 301.582031 198.042969 C 300.664062 199.230469 236.332031 263.292969 236.332031 263.292969 C 233.347656 265.710938 229.546875 267.164062 225.402344 267.164062 C 215.804688 267.164062 208.019531 259.382812 208.019531 249.785156 C 208.019531 245.574219 209.515625 241.714844 212.003906 238.707031 L 245.96875 204.742188 L 87.050781 204.742188 C 77.496094 204.742188 69.757812 196.996094 69.757812 187.449219 C 69.757812 177.894531 77.496094 170.15625 87.050781 170.15625 " fill-opacity="1" fill-rule="nonzero"/></g><g clip-path="url(#45660ff0d3)"><path fill="#ffffff" d="M 187.496094 368.355469 C 87.574219 368.355469 6.632812 286.855469 6.632812 187.496094 C 6.632812 88.132812 87.574219 6.632812 187.496094 6.632812 C 287.414062 6.632812 368.355469 87.574219 368.355469 187.496094 C 368.355469 287.414062 286.855469 368.355469 187.496094 368.355469 Z M 187.496094 17.796875 C 93.714844 17.796875 17.796875 93.714844 17.796875 187.496094 C 17.796875 281.273438 93.714844 357.191406 187.496094 357.191406 C 281.273438 357.191406 357.191406 281.273438 357.191406 187.496094 C 357.191406 93.714844 280.714844 17.796875 187.496094 17.796875 Z M 187.496094 17.796875 " fill-opacity="1" fill-rule="nonzero"/></g></svg>